<svg width="40" height="40" viewBox="0 0 40 40" fill="none" xmlns="http://www.w3.org/2000/svg">
<path d="M27.0667 3.33333H12.9334C8.33342 3.33333 6.66675 5 6.66675 9.68333V30.3167C6.66675 35 8.33342 36.6667 12.9334 36.6667H27.0501C31.6667 36.6667 33.3334 35 33.3334 30.3167V9.68333C33.3334 5 31.6667 3.33333 27.0667 3.33333ZM20.0001 32.1667C18.4001 32.1667 17.0834 30.85 17.0834 29.25C17.0834 27.65 18.4001 26.3333 20.0001 26.3333C21.6001 26.3333 22.9167 27.65 22.9167 29.25C22.9167 30.85 21.6001 32.1667 20.0001 32.1667ZM23.3334 10.4167H16.6667C15.9834 10.4167 15.4167 9.85 15.4167 9.16667C15.4167 8.48333 15.9834 7.91667 16.6667 7.91667H23.3334C24.0167 7.91667 24.5834 8.48333 24.5834 9.16667C24.5834 9.85 24.0167 10.4167 23.3334 10.4167Z" fill="white"/>
</svg>
