<svg width="24" height="25" viewBox="0 0 24 25" fill="none" xmlns="http://www.w3.org/2000/svg">
<path d="M17.53 7.98378C17.46 7.97368 17.39 7.97368 17.32 7.98378C15.77 7.93327 14.54 6.65017 14.54 5.07409C14.54 3.4677 15.83 2.1543 17.43 2.1543C19.02 2.1543 20.32 3.4576 20.32 5.07409C20.31 6.65017 19.08 7.93327 17.53 7.98378Z" fill="black"/>
<path d="M20.7901 14.9851C19.6701 15.7428 18.1001 16.0257 16.6501 15.8338C17.0301 15.0053 17.2301 14.0859 17.2401 13.116C17.2401 12.1057 17.0201 11.1459 16.6001 10.3074C18.0801 10.1053 19.6501 10.3882 20.7801 11.1459C22.3601 12.1967 22.3601 13.9243 20.7901 14.9851Z" fill="black"/>
<path d="M6.43991 7.98378C6.50991 7.97368 6.57991 7.97368 6.64991 7.98378C8.19991 7.93327 9.42991 6.65017 9.42991 5.07409C9.42991 3.4576 8.13991 2.1543 6.53991 2.1543C4.94991 2.1543 3.65991 3.4576 3.65991 5.07409C3.65991 6.65017 4.88991 7.93327 6.43991 7.98378Z" fill="black"/>
<path d="M6.55012 13.1162C6.55012 14.0962 6.76012 15.0257 7.14012 15.8643C5.73012 16.0158 4.26012 15.7127 3.18012 14.9954C1.60012 13.9346 1.60012 12.2069 3.18012 11.1461C4.25012 10.4187 5.76012 10.1257 7.18012 10.2874C6.77012 11.136 6.55012 12.0958 6.55012 13.1162Z" fill="black"/>
<path d="M12.12 16.1674C12.04 16.1573 11.95 16.1573 11.86 16.1674C10.02 16.1068 8.55005 14.5812 8.55005 12.702C8.56005 10.7824 10.09 9.22656 12 9.22656C13.9 9.22656 15.44 10.7824 15.44 12.702C15.43 14.5812 13.97 16.1068 12.12 16.1674Z" fill="black"/>
<path d="M8.87005 18.2586C7.36005 19.279 7.36005 20.9561 8.87005 21.9664C10.59 23.1283 13.41 23.1283 15.1301 21.9664C16.64 20.946 16.64 19.2689 15.1301 18.2586C13.42 17.0967 10.6 17.0967 8.87005 18.2586Z" fill="black"/>
</svg>
