<svg width="34" height="28" viewBox="0 0 34 28" fill="none" xmlns="http://www.w3.org/2000/svg">
<path d="M33.2507 3.93363C32.0554 4.44926 30.7546 4.82035 29.4148 4.96488C30.8059 4.13846 31.8476 2.83285 32.3445 1.29301C31.0391 2.06953 29.6091 2.61404 28.1179 2.90238C27.4947 2.23608 26.7409 1.70527 25.9035 1.34304C25.0661 0.980801 24.1631 0.794899 23.2507 0.796914C19.5593 0.796914 16.5906 3.7891 16.5906 7.46098C16.5906 7.9766 16.6531 8.49223 16.7546 8.98832C11.2273 8.69926 6.29761 6.05863 3.02026 2.01566C2.4231 3.03565 2.11016 4.19702 2.11401 5.37894C2.11401 7.69144 3.28979 9.73051 5.08276 10.9297C4.02614 10.8881 2.99426 10.5977 2.07104 10.0821V10.1641C2.07104 13.4024 4.36011 16.086 7.41089 16.7032C6.83807 16.852 6.24881 16.9281 5.65698 16.9297C5.22339 16.9297 4.81323 16.8868 4.39917 16.8282C5.24292 19.4688 7.69995 21.3868 10.6257 21.4493C8.33667 23.2422 5.46948 24.2969 2.3562 24.2969C1.79761 24.2969 1.28198 24.2774 0.746826 24.2149C3.69995 26.1094 7.20386 27.2032 10.9773 27.2032C23.2273 27.2032 29.9304 17.0547 29.9304 8.24613C29.9304 7.95707 29.9304 7.66801 29.9109 7.37894C31.2078 6.42973 32.3445 5.25394 33.2507 3.93363Z" fill="white"/>
</svg>
