<svg width="34" height="34" viewBox="0 0 34 34" fill="none" xmlns="http://www.w3.org/2000/svg">
<path d="M23.9833 0.333313H10.0166C3.94992 0.333313 0.333252 3.94998 0.333252 10.0166V23.9666C0.333252 30.05 3.94992 33.6666 10.0166 33.6666H23.9666C30.0333 33.6666 33.6499 30.05 33.6499 23.9833V10.0166C33.6666 3.94998 30.0499 0.333313 23.9833 0.333313ZM19.9833 22C20.4666 22.4833 20.4666 23.2833 19.9833 23.7666C19.7333 24.0166 19.4166 24.1333 19.0999 24.1333C18.7833 24.1333 18.4666 24.0166 18.2166 23.7666L12.3333 17.8833C11.8499 17.4 11.8499 16.6 12.3333 16.1166L18.2166 10.2333C18.6999 9.74998 19.4999 9.74998 19.9833 10.2333C20.4666 10.7166 20.4666 11.5166 19.9833 12L14.9833 17L19.9833 22Z" fill="white"/>
</svg>
