<svg width="34" height="34" viewBox="0 0 34 34" fill="none" xmlns="http://www.w3.org/2000/svg">
<path d="M23.9834 0.333313H10.0167C3.95004 0.333313 0.333374 3.94998 0.333374 10.0166V23.9666C0.333374 30.05 3.95004 33.6666 10.0167 33.6666H23.9667C30.0334 33.6666 33.65 30.05 33.65 23.9833V10.0166C33.6667 3.94998 30.05 0.333313 23.9834 0.333313ZM21.65 17.8833L15.7667 23.7666C15.5167 24.0166 15.2 24.1333 14.8834 24.1333C14.5667 24.1333 14.25 24.0166 14 23.7666C13.5167 23.2833 13.5167 22.4833 14 22L19 17L14 12C13.5167 11.5166 13.5167 10.7166 14 10.2333C14.4834 9.74998 15.2834 9.74998 15.7667 10.2333L21.65 16.1166C22.15 16.6 22.15 17.4 21.65 17.8833Z" fill="white"/>
</svg>
